<svg width="166" height="23" viewBox="0 0 166 23" fill="none" xmlns="http://www.w3.org/2000/svg">
<path d="M21.7117 11.5909C21.3139 13.9631 20.5256 15.9517 19.3466 17.5568C18.1676 19.1619 16.7365 20.3729 15.0533 21.1896C13.37 22.0064 11.5696 22.4148 9.652 22.4148C7.60655 22.4148 5.83098 21.9709 4.3253 21.0831C2.81961 20.1953 1.72231 18.8956 1.03339 17.184C0.344471 15.4723 0.205977 13.3807 0.617909 10.9091C1.00143 8.53694 1.78268 6.5412 2.96166 4.92188C4.14064 3.30256 5.57885 2.07742 7.27629 1.24646C8.97373 0.415491 10.7884 7.51019e-06 12.7202 7.51019e-06C14.7514 7.51019e-06 16.5163 0.447451 18.0149 1.34234C19.5206 2.23722 20.6144 3.54759 21.2962 5.27345C21.9851 6.9993 22.1236 9.10512 21.7117 11.5909ZM15.7458 10.9091C15.9446 9.6591 15.9588 8.60796 15.7884 7.75569C15.6179 6.89631 15.2592 6.25001 14.7124 5.81677C14.1655 5.37643 13.4304 5.15626 12.5071 5.15626C11.456 5.15626 10.5256 5.41194 9.71592 5.9233C8.90626 6.43467 8.2351 7.16975 7.70243 8.12856C7.16976 9.08737 6.79689 10.2415 6.58382 11.5909C6.35655 12.8551 6.33524 13.9063 6.5199 14.7443C6.71166 15.5824 7.08808 16.2109 7.64916 16.63C8.21734 17.049 8.95598 17.2585 9.86507 17.2585C10.902 17.2585 11.8182 17.01 12.6136 16.5128C13.4162 16.0156 14.0803 15.2948 14.6058 14.3502C15.1385 13.4055 15.5185 12.2585 15.7458 10.9091Z" fill="#505DFF"/>
<path d="M22.7051 22.1165L26.3272 0.298303H35.7875C37.4494 0.298303 38.8095 0.522025 39.8677 0.969469C40.9331 1.41691 41.6859 2.04901 42.1263 2.86577C42.5737 3.68254 42.7051 4.64489 42.5204 5.75285C42.3784 6.5483 42.073 7.27629 41.6042 7.9368C41.1426 8.59021 40.5567 9.14418 39.8464 9.59873C39.1433 10.0462 38.3585 10.3551 37.492 10.5256L37.4494 10.7386C38.3869 10.7671 39.2037 11.0014 39.8997 11.4418C40.5957 11.875 41.1071 12.4787 41.4338 13.2528C41.7605 14.0199 41.8386 14.9148 41.6682 15.9375C41.4693 17.1307 40.9828 18.1925 40.2086 19.1229C39.4345 20.0533 38.4295 20.7848 37.1937 21.3175C35.9579 21.8502 34.5517 22.1165 32.975 22.1165H22.7051ZM29.438 17.3864H32.2079C33.188 17.3864 33.9586 17.1982 34.5197 16.8217C35.0879 16.4453 35.4253 15.8949 35.5318 15.1705C35.617 14.6591 35.5744 14.2259 35.404 13.8707C35.2335 13.5156 34.9459 13.2457 34.541 13.0611C34.1362 12.8764 33.6284 12.7841 33.0176 12.7841H30.1625L29.438 17.3864ZM30.8017 9.11933H33.2307C33.742 9.11933 34.2108 9.03765 34.6369 8.8743C35.063 8.71095 35.4146 8.47302 35.6916 8.16052C35.9686 7.84802 36.1426 7.4716 36.2136 7.03126C36.3201 6.34944 36.1568 5.83097 35.7236 5.47586C35.2974 5.12075 34.7221 4.94319 33.9977 4.94319H31.4835L30.8017 9.11933ZM55.3578 0.298303H61.1959L58.7243 15.2557C58.4828 16.6761 57.9217 17.9261 57.041 19.0057C56.1603 20.0781 55.0488 20.9162 53.7065 21.5199C52.3642 22.1165 50.8834 22.4148 49.264 22.4148C47.872 22.4148 46.6362 22.1733 45.5567 21.6903C44.4842 21.2003 43.6888 20.4332 43.1703 19.3892C42.6589 18.3381 42.5453 16.9744 42.8294 15.2983H48.7527C48.6817 15.8523 48.6959 16.3175 48.7953 16.6939C48.8947 17.0632 49.0794 17.3438 49.3493 17.5355C49.6192 17.7202 49.9743 17.8125 50.4146 17.8125C50.8549 17.8125 51.242 17.7166 51.5758 17.5249C51.9096 17.326 52.1866 17.0384 52.4068 16.6619C52.627 16.2784 52.7868 15.8097 52.8862 15.2557L55.3578 0.298303ZM60.3809 22.1165L64.003 0.298303H79.7275L78.9178 5.07103H69.1167L68.5201 8.82103H77.5116L76.7019 13.5938H67.7104L67.1138 17.3438H76.8723L76.0627 22.1165H60.3809ZM101.65 8.48012H95.7262C95.7688 7.97586 95.7404 7.52131 95.641 7.11649C95.5416 6.71166 95.3711 6.36364 95.1296 6.07245C94.8882 5.77416 94.5721 5.54688 94.1815 5.39063C93.7908 5.23438 93.3257 5.15626 92.7859 5.15626C91.7489 5.15626 90.8221 5.41549 90.0053 5.93396C89.1886 6.44532 88.5103 7.18041 87.9705 8.13921C87.4308 9.09092 87.0472 10.2273 86.82 11.5483C86.6211 12.8267 86.614 13.8885 86.7987 14.7337C86.9904 15.5788 87.3633 16.2109 87.9173 16.63C88.4783 17.049 89.2063 17.2585 90.1012 17.2585C90.6978 17.2585 91.2447 17.1875 91.7418 17.0455C92.2461 16.9034 92.6935 16.701 93.0842 16.4382C93.4819 16.1683 93.8193 15.8487 94.0962 15.4794C94.3803 15.103 94.597 14.6875 94.7461 14.233H100.712C100.485 15.1563 100.08 16.1009 99.4975 17.0668C98.9151 18.0256 98.1623 18.9098 97.239 19.7195C96.3157 20.522 95.2291 21.1719 93.9791 21.669C92.7291 22.1662 91.3228 22.4148 89.7603 22.4148C87.7149 22.4148 85.9499 21.9673 84.4656 21.0725C82.9883 20.1776 81.9158 18.8707 81.2482 17.152C80.5877 15.4332 80.4563 13.3381 80.8541 10.8665C81.2518 8.48012 82.0366 6.48083 83.2085 4.86862C84.3803 3.2564 85.8043 2.04191 87.4805 1.22515C89.1566 0.408388 90.9393 7.51019e-06 92.8285 7.51019e-06C94.256 7.51019e-06 95.5345 0.188218 96.6637 0.564638C97.8001 0.941059 98.7553 1.49148 99.5295 2.21592C100.311 2.93325 100.886 3.81748 101.255 4.86862C101.625 5.91975 101.756 7.12359 101.65 8.48012ZM104.316 5.07103L105.125 0.298303H124.088L123.279 5.07103H116.716L113.904 22.1165H108.066L110.878 5.07103H104.316ZM144.553 11.5909C144.156 13.9631 143.367 15.9517 142.188 17.5568C141.009 19.1619 139.578 20.3729 137.895 21.1896C136.212 22.0064 134.411 22.4148 132.494 22.4148C130.448 22.4148 128.673 21.9709 127.167 21.0831C125.661 20.1953 124.564 18.8956 123.875 17.184C123.186 15.4723 123.048 13.3807 123.46 10.9091C123.843 8.53694 124.624 6.5412 125.803 4.92188C126.982 3.30256 128.421 2.07742 130.118 1.24646C131.816 0.415491 133.63 7.51019e-06 135.562 7.51019e-06C137.593 7.51019e-06 139.358 0.447451 140.857 1.34234C142.362 2.23722 143.456 3.54759 144.138 5.27345C144.827 6.9993 144.965 9.10512 144.553 11.5909ZM138.588 10.9091C138.786 9.6591 138.801 8.60796 138.63 7.75569C138.46 6.89631 138.101 6.25001 137.554 5.81677C137.007 5.37643 136.272 5.15626 135.349 5.15626C134.298 5.15626 133.367 5.41194 132.558 5.9233C131.748 6.43467 131.077 7.16975 130.544 8.12856C130.012 9.08737 129.639 10.2415 129.426 11.5909C129.198 12.8551 129.177 13.9063 129.362 14.7443C129.553 15.5824 129.93 16.2109 130.491 16.63C131.059 17.049 131.798 17.2585 132.707 17.2585C133.744 17.2585 134.66 17.01 135.455 16.5128C136.258 16.0156 136.922 15.2948 137.448 14.3502C137.98 13.4055 138.36 12.2585 138.588 10.9091ZM145.547 22.1165L149.169 0.298303H158.587C160.206 0.298303 161.573 0.593047 162.688 1.18254C163.803 1.77202 164.606 2.62075 165.096 3.7287C165.586 4.83666 165.703 6.16478 165.447 7.71308C165.192 9.27558 164.627 10.593 163.754 11.6655C162.887 12.7308 161.783 13.5405 160.44 14.0945C159.105 14.6413 157.607 14.9148 155.945 14.9148H150.32L151.087 10.3125H155.518C156.215 10.3125 156.825 10.2273 157.351 10.0568C157.876 9.87927 158.303 9.60228 158.629 9.22586C158.956 8.84234 159.169 8.33808 159.268 7.71308C159.368 7.08808 159.318 6.58026 159.119 6.18964C158.92 5.79191 158.59 5.50072 158.129 5.31606C157.667 5.1243 157.095 5.02842 156.413 5.02842H154.325L151.47 22.1165H145.547ZM159.993 12.1023L163.786 22.1165H157.351L153.686 12.1023H159.993Z" fill="white"/>
</svg>
